<?xml version="1.0" standalone="no"?>
<!DOCTYPE svg PUBLIC "-//W3C//DTD SVG 20010904//EN"
 "http://www.w3.org/TR/2001/REC-SVG-20010904/DTD/svg10.dtd">
<svg version="1.0" xmlns="http://www.w3.org/2000/svg"
 width="493.000000pt" height="493.000000pt" viewBox="0 0 493.000000 493.000000"
 preserveAspectRatio="xMidYMid meet">
<metadata>
Created by potrace 1.14, written by Peter Selinger 2001-2017
</metadata>
<g transform="translate(0.000000,493.000000) scale(0.100000,-0.100000)"
fill="#000000" stroke="none">
<path d="M2015 4711 c-182 -64 -333 -159 -475 -297 l-95 -92 -132 -26 c-95
-19 -143 -33 -170 -52 l-38 -25 -55 59 c-30 33 -65 65 -77 71 -12 6 -53 11
-90 11 -59 0 -76 -4 -115 -29 -41 -26 -98 -87 -98 -105 0 -4 -16 -27 -35 -50
-61 -75 -75 -117 -75 -241 0 -60 7 -141 15 -180 8 -38 18 -112 23 -163 11
-106 28 -134 94 -154 21 -6 45 -20 55 -30 15 -17 15 -24 4 -61 -25 -87 -30
-125 -31 -254 0 -131 -1 -134 -36 -210 -28 -61 -55 -97 -132 -178 -147 -153
-243 -306 -332 -529 -64 -163 -105 -419 -49 -308 13 26 14 23 19 -53 6 -87 5
-89 31 60 24 135 125 331 202 389 21 16 56 30 88 35 40 7 60 16 80 39 57 64
84 63 135 -5 75 -99 142 -170 188 -198 93 -57 165 -105 170 -114 3 -5 -12 -11
-34 -15 -69 -11 -140 -90 -140 -155 0 -16 -5 -42 -12 -58 -6 -15 -15 -116 -20
-223 -5 -107 -11 -227 -14 -266 -4 -58 -2 -79 12 -105 15 -28 20 -67 24 -205
5 -166 7 -173 33 -213 l27 -41 -22 0 c-28 0 -115 32 -180 66 -27 13 -48 22
-48 20 0 -8 149 -97 202 -120 111 -49 226 -84 336 -101 61 -10 112 -21 112
-25 0 -3 -28 -20 -62 -36 -61 -29 -64 -29 -226 -28 -93 1 -158 -2 -150 -7 59
-38 285 -98 367 -99 32 0 69 -12 130 -42 105 -53 145 -55 216 -12 116 69 218
97 260 70 13 -9 50 -26 81 -37 47 -18 70 -21 130 -15 68 5 74 4 89 -16 8 -13
15 -43 15 -68 0 -58 9 -90 25 -90 17 0 25 23 25 75 0 65 14 91 54 105 19 6
110 14 203 17 303 12 423 2 499 -38 58 -30 81 -29 187 11 73 28 137 25 237
-10 47 -16 92 -30 101 -30 9 0 42 12 73 26 32 14 93 35 136 45 43 11 121 41
173 67 l95 48 -201 0 c-210 -1 -277 6 -277 28 0 12 39 27 160 60 152 41 249
83 323 140 25 19 59 42 76 51 17 8 31 18 31 21 0 2 -13 -2 -30 -11 -62 -32
-63 -21 -10 92 45 97 49 137 19 202 -30 69 -46 174 -31 214 7 18 17 78 23 134
12 120 3 182 -42 282 -28 61 -29 70 -31 233 l-3 170 80 75 c113 105 131 110
165 42 26 -51 52 -57 96 -24 l35 27 34 -29 c19 -15 48 -39 65 -52 35 -26 73
-95 105 -191 12 -36 26 -64 31 -62 5 1 9 31 9 67 1 35 4 67 7 70 12 13 83
-116 108 -195 7 -22 8 -23 15 -7 10 24 -21 183 -53 272 -33 95 -94 215 -153
302 -44 65 -83 111 -206 243 -26 26 -50 65 -59 95 -9 28 -34 82 -55 121 l-39
71 0 149 c0 128 -3 158 -22 211 -25 73 -21 82 50 113 97 43 115 78 117 225 1
64 6 119 13 132 15 27 16 223 2 274 -6 20 -21 52 -35 70 -14 19 -43 62 -66 96
-61 93 -106 115 -268 130 -83 7 -129 -9 -182 -63 -46 -47 -66 -52 -120 -30
-19 7 -77 22 -129 32 l-94 18 -91 84 c-101 95 -143 129 -165 134 -8 2 -18 7
-21 11 -3 5 -13 -7 -22 -25 -16 -31 -17 -32 -18 -8 -1 14 -1 28 0 32 0 4 -30
24 -67 44 -37 21 -75 44 -85 52 -9 8 -19 13 -22 10 -3 -3 13 -18 35 -33 58
-40 119 -110 142 -161 24 -56 18 -78 -20 -72 -15 3 -103 20 -197 37 -156 30
-175 36 -240 76 -154 95 -331 108 -493 34 -46 -20 -69 -26 -76 -19 -6 6 -12
60 -14 120 -3 74 -8 110 -16 110 -6 -1 -47 -13 -91 -29z m85 -41 c6 -12 10
-61 8 -117 l-3 -98 -135 -27 c-166 -33 -190 -34 -190 -9 0 10 7 25 16 32 9 7
41 46 72 87 71 95 142 152 188 152 23 0 37 -6 44 -20z m-1172 -613 c19 -38 7
-46 -19 -14 -17 22 -29 27 -67 27 -35 0 -43 3 -32 10 8 6 35 9 60 8 38 -3 47
-7 58 -31z m1678 -48 c42 -29 113 -109 97 -109 -5 0 -30 20 -56 43 -25 24 -74
59 -107 76 -34 18 -59 35 -56 39 3 3 0 12 -7 21 -13 16 61 -24 129 -70z m1447
74 c3 -5 -13 -8 -35 -9 -32 0 -46 -6 -64 -28 -18 -20 -24 -23 -24 -11 0 40 19
55 70 55 27 0 51 -3 53 -7z m-3192 -50 c11 -15 11 -16 -1 -5 -32 28 -67 7 -80
-51 -7 -29 -8 -30 -9 -6 -1 32 34 79 59 79 9 0 24 -8 31 -17z m3207 5 c7 -7
12 -16 12 -21 0 -5 -7 -1 -16 7 -25 26 -47 17 -63 -27 -20 -52 20 -104 60 -78
11 6 19 7 19 1 0 -15 -39 -32 -59 -25 -39 12 -52 103 -20 142 14 16 51 17 67
1z m-1729 -98 c-36 -45 -45 -51 -28 -17 10 18 47 56 57 57 2 0 -12 -18 -29
-40z m-1413 -82 c-10 -14 -16 -44 -16 -84 0 -43 -5 -65 -15 -74 -23 -19 -18
-29 17 -38 17 -4 33 -13 36 -20 3 -9 -17 -12 -72 -12 -60 0 -76 3 -76 15 0 7
8 18 17 24 14 8 15 12 4 25 -7 9 -16 46 -18 83 -3 38 -10 74 -16 81 -14 18 -2
25 21 13 12 -6 30 -11 42 -11 28 0 79 52 82 82 1 13 3 4 5 -19 3 -28 -1 -51
-11 -65z m1493 88 c-2 -2 -34 -26 -70 -54 -50 -38 -66 -46 -62 -31 3 11 8 18
10 15 3 -3 28 13 55 35 27 21 55 39 61 39 5 0 8 -2 6 -4z m-1573 -38 c24 12
26 11 14 -2 -7 -9 -19 -16 -28 -16 -18 0 -52 28 -52 43 0 5 8 -1 19 -14 17
-21 21 -22 47 -11z m3103 -4 c21 -36 22 -36 76 -32 51 4 69 -2 45 -17 -5 -3
-10 -30 -10 -58 0 -35 -7 -63 -21 -86 l-21 -35 24 -17 c21 -16 21 -18 5 -25
-22 -8 -127 5 -127 16 0 5 14 11 30 15 35 8 35 10 15 58 -8 20 -15 56 -15 79
0 24 -7 52 -15 62 -13 18 -22 76 -11 76 2 0 14 -16 25 -36z m-996 -39 c-3 -9
-8 -14 -10 -11 -3 3 -2 9 2 15 9 16 15 13 8 -4z m-373 -5 c12 -8 11 -10 -7
-10 -12 0 -25 5 -28 10 -8 13 15 13 35 0z m343 -30 c3 -11 1 -20 -4 -20 -5 0
-9 9 -9 20 0 11 2 20 4 20 2 0 6 -9 9 -20z m977 -55 c0 -29 -8 -31 -137 -40
-88 -5 -93 -5 -93 14 0 21 3 22 150 40 36 5 68 9 73 10 4 0 7 -10 7 -24z
m-2792 -11 c39 -4 72 -10 72 -14 0 -22 -32 -27 -122 -23 -96 6 -98 6 -98 31 0
23 3 24 38 19 20 -4 70 -9 110 -13z m2458 -33 c-4 -6 -20 -11 -37 -11 -38 0
-39 27 -1 32 31 4 47 -5 38 -21z m-2196 -6 c0 -10 -11 -15 -35 -15 -24 0 -35
5 -35 15 0 10 11 15 35 15 24 0 35 -5 35 -15z m730 -51 c-6 -15 -20 -39 -31
-55 -11 -16 -38 -59 -59 -96 -43 -73 -47 -70 -26 20 16 66 5 74 -24 18 -30
-59 -70 -116 -70 -99 0 24 69 131 112 173 l40 40 -16 -32 c-26 -53 0 -48 40 7
40 56 48 62 34 24z m-1020 -24 c0 -5 -18 -10 -41 -10 -24 0 -38 4 -34 10 3 6
22 10 41 10 19 0 34 -4 34 -10z m2785 0 c-3 -5 -26 -10 -50 -10 -24 0 -47 5
-50 10 -4 6 15 10 50 10 35 0 54 -4 50 -10z m-2498 -73 c14 -67 7 -103 -20
-111 -43 -11 -47 -6 -22 30 28 41 29 47 14 75 -10 20 -4 59 10 59 4 0 12 -24
18 -53z m908 27 c14 -15 25 -34 25 -42 0 -11 8 -13 34 -9 28 4 35 2 39 -15 3
-11 14 -22 24 -24 17 -5 18 -22 15 -312 -3 -421 -2 -412 -36 -242 -15 80 -31
156 -34 170 -5 23 -4 24 13 10 17 -14 18 -12 11 35 -8 55 -31 97 -71 135 l-25
24 32 10 c45 16 46 32 1 28 -21 -2 -50 1 -66 7 -24 9 -26 13 -15 30 7 11 21
22 31 25 18 4 18 3 2 -14 -9 -10 -12 -20 -7 -23 16 -11 71 32 91 70 24 48 25
58 3 59 -9 1 -22 2 -29 3 -14 1 -86 101 -73 101 6 0 22 -12 35 -26z m312 -23
c-33 -51 -46 -60 -85 -53 -34 7 -20 27 16 24 26 -3 34 2 46 27 13 24 38 48 53
51 1 0 -13 -22 -30 -49z m945 7 c-22 -22 -13 -66 21 -104 31 -37 31 -37 7 -31
-14 4 -32 7 -41 7 -24 0 -32 55 -18 118 11 48 14 51 28 38 12 -12 13 -18 3
-28z m-2433 -30 c1 -5 -3 -8 -9 -8 -5 0 -10 12 -9 28 0 24 1 25 9 7 5 -11 9
-23 9 -27z m2691 22 c0 -16 -7 -20 -30 -20 -23 0 -30 4 -30 20 0 16 7 20 30
20 23 0 30 -4 30 -20z m-2765 0 c8 -13 -35 -13 -55 0 -11 7 -7 10 17 10 17 0
35 -4 38 -10z m2883 -2 c-7 -20 -58 -23 -58 -4 0 11 10 16 31 16 20 0 29 -4
27 -12z m-1018 -83 c-42 -43 -28 -44 53 -4 55 28 60 29 42 9 -11 -12 -45 -33
-75 -47 -30 -13 -70 -38 -89 -56 l-33 -32 22 43 c23 47 99 136 108 127 3 -3
-10 -21 -28 -40z m-632 7 c2 -15 -2 -22 -12 -22 -11 0 -16 9 -16 26 0 31 23
28 28 -4z m370 6 c-4 -29 -38 -38 -38 -10 0 22 8 32 27 32 9 0 13 -8 11 -22z
m-117 -38 c32 -51 54 -70 85 -70 16 0 16 1 1 18 -16 18 -15 18 13 14 57 -8 46
-42 -13 -42 -18 0 -26 -4 -21 -11 5 -8 -3 -10 -25 -7 -36 5 -41 -6 -8 -23 12
-6 24 -13 26 -15 2 -2 -10 -19 -27 -38 -43 -49 -71 -156 -38 -143 17 7 14 -27
-11 -130 -8 -34 -20 -110 -27 -170 l-14 -108 -2 130 c-1 72 -5 244 -9 383 -5
200 -3 251 7 247 6 -2 12 0 12 5 0 24 23 6 51 -40z m-1430 -81 c16 -6 29 -16
29 -21 0 -5 -18 2 -40 14 -26 15 -40 30 -39 43 0 19 1 19 11 -2 6 -12 23 -27
39 -34z m2730 -1 c-47 -42 -61 -34 -15 10 21 21 41 34 43 29 2 -6 -10 -23 -28
-39z m-816 -10 c-8 -18 -27 -41 -41 -52 -26 -18 -26 -18 -15 2 6 11 8 27 5 35
-3 9 8 25 28 41 38 30 46 21 23 -26z m835 -76 c0 -10 -35 -28 -70 -37 -15 -3
-7 4 20 19 52 29 50 28 50 18z m-2750 -17 c16 -9 19 -14 9 -15 -8 0 -24 7 -35
15 -24 18 -7 19 26 0z m2665 -105 c-3 -5 -14 -10 -23 -9 -14 0 -13 2 3 9 27
11 27 11 20 0z m-2598 -6 c-3 -3 -12 -4 -19 -1 -8 3 -5 6 6 6 11 1 17 -2 13
-5z m903 -245 c33 -65 35 -73 20 -64 -16 10 -23 -22 -12 -55 6 -16 9 -30 7
-30 -10 0 -59 110 -80 177 l-23 73 29 -20 c15 -12 42 -48 59 -81z m990 -160
c7 -24 23 -66 36 -93 25 -55 5 -37 -30 25 -17 31 -19 32 -26 14 -18 -48 -32
137 -15 210 8 39 9 38 16 -37 5 -42 13 -96 19 -119z m-798 57 l20 -41 -37 35
c-20 19 -41 43 -46 52 -9 16 -7 17 16 6 15 -7 36 -30 47 -52z m413 14 c-27
-27 -50 -48 -52 -46 -10 10 23 54 55 73 52 31 52 29 -3 -27z m97 -2 c-17 -29
-35 -52 -42 -50 -6 1 -26 -8 -43 -20 -18 -12 0 10 38 49 39 38 72 71 73 72 2
0 -10 -23 -26 -51z m-1362 -47 c-5 -11 -15 -23 -20 -26 -20 -12 -10 -35 16
-35 38 0 20 -16 -25 -24 -70 -11 -73 0 -17 54 57 56 61 58 46 31z m843 -67
c-7 -19 -19 -9 -48 37 -35 55 -31 59 14 15 22 -22 37 -45 34 -52z m-1127 6
c26 -9 24 -10 -13 -6 -39 4 -43 2 -43 -17 0 -14 -11 -28 -30 -39 -34 -19 -35
-18 -16 20 10 19 12 40 7 69 l-8 42 37 -30 c20 -17 50 -34 66 -39z m2458 -27
c17 -9 16 -11 -8 -17 -15 -4 -46 -1 -69 5 -30 9 -36 14 -22 16 45 9 49 12 33
31 -33 38 -29 45 8 11 21 -20 47 -41 58 -46z m405 2 c0 -16 -6 -43 -14 -60
-12 -27 -13 -28 -14 -7 -1 12 -5 22 -10 22 -5 0 -16 12 -26 26 -17 26 -16 26
17 54 29 24 34 26 40 12 4 -10 7 -30 7 -47z m-1136 -23 l-8 -43 -110 -45 c-60
-25 -116 -48 -122 -51 -32 -13 -6 11 75 70 49 36 106 82 128 104 43 42 49 37
37 -35z m187 -62 c0 -25 -1 -25 -20 6 -11 17 -23 46 -26 65 l-6 34 26 -40 c14
-22 25 -51 26 -65z m-995 -14 c25 -42 50 -146 35 -146 -3 0 -11 17 -16 37 -15
60 -34 54 -34 -11 0 -31 -3 -56 -8 -56 -8 0 -32 92 -32 123 0 16 22 97 27 97
1 0 14 -20 28 -44z m-600 14 l20 -9 -20 0 c-11 0 -27 4 -35 9 -13 9 -13 10 0
9 8 0 24 -4 35 -9z m144 -47 c-8 -9 -39 -27 -69 -40 -30 -14 -66 -34 -79 -46
l-23 -22 7 25 c11 39 60 80 98 80 17 0 39 5 47 10 24 15 34 12 19 -7z m557
-68 c31 -66 30 -83 -8 -123 l-33 -33 23 -19 c44 -36 204 -51 266 -25 13 6 17
5 13 -2 -13 -21 -101 -43 -171 -43 -62 1 -69 2 -53 14 16 12 14 14 -20 21 -21
3 -57 15 -81 25 l-43 19 21 21 c12 12 20 33 20 55 0 23 4 34 13 33 16 -4 22
74 8 116 -10 29 -10 30 5 11 9 -11 27 -42 40 -70z m1249 61 c45 -8 67 -21 83
-53 19 -35 15 -48 -8 -28 -12 11 -49 33 -83 49 -34 17 -63 37 -65 44 -3 11 0
12 14 4 11 -5 37 -13 59 -16z m-470 -7 c7 -11 -24 -60 -76 -119 l-31 -35 5 42
c3 27 17 56 38 82 32 41 52 50 64 30z m-606 -167 c-14 -5 -39 6 -39 17 0 5 11
4 25 -2 13 -7 20 -14 14 -15z m446 6 c-17 -54 -85 -131 -101 -115 -13 12 12
61 49 97 47 45 61 50 52 18z m-155 -113 c0 -21 -35 -67 -65 -85 -40 -25 -52
-22 -36 8 18 35 101 97 101 77z m-941 -117 c10 -24 35 -64 55 -90 l36 -48 -28
1 c-15 0 -36 4 -47 9 -19 8 -19 9 3 9 28 1 28 3 -4 51 -23 34 -49 110 -38 110
3 0 13 -19 23 -42z m1130 4 c-23 -39 -21 -92 2 -92 6 0 38 20 70 45 l60 45
-17 -32 c-9 -18 -39 -55 -67 -81 l-51 -48 -22 43 c-31 58 -30 95 3 130 38 39
48 35 22 -10z m-385 -22 c-16 -16 -46 -36 -66 -45 -37 -15 -37 -15 -29 8 7 21
109 82 120 72 3 -3 -8 -19 -25 -35z m772 -12 c-3 -17 -17 -46 -31 -64 -31 -41
-31 -44 3 -45 24 0 25 -1 7 -9 -11 -5 -35 -9 -54 -9 l-33 -1 34 38 c19 21 43
57 54 80 23 50 29 53 20 10z m-952 -49 c-20 -23 -83 -54 -91 -45 -11 11 20 46
50 55 54 16 62 14 41 -10z m-153 -38 c-11 -20 -60 -41 -94 -41 -18 0 -18 2 -5
23 9 12 30 25 49 28 59 11 61 11 50 -10z m699 -93 c0 -26 -22 -22 -54 11 l-27
29 40 -11 c29 -8 41 -17 41 -29z m-380 -48 c15 -9 -4 -75 -96 -328 l-27 -73
21 -29 c27 -36 27 -42 1 -66 -26 -23 -22 -44 21 -144 18 -41 42 -95 53 -120
11 -25 23 -56 27 -70 4 -14 11 -33 15 -42 6 -16 -1 -18 -73 -18 l-80 0 -24 53
c-14 28 -31 68 -38 87 -31 83 -54 72 -55 -28 -1 -85 -5 -92 -52 -82 -20 5 -49
6 -63 3 l-27 -5 -7 169 c-7 170 -8 170 -51 229 -6 9 -2 21 14 38 l24 26 -6
189 c-7 177 -6 191 11 200 23 12 144 2 154 -13 4 -6 8 -53 8 -104 0 -54 4 -91
9 -88 5 4 21 45 36 94 40 130 42 132 123 132 37 0 74 -5 82 -10z m1347 -14
c57 -35 73 -79 73 -204 0 -82 -4 -112 -14 -121 -9 -7 -41 -11 -83 -9 l-68 3
-3 89 c-2 50 -8 96 -14 103 -6 8 -25 13 -42 11 l-31 -3 -3 -106 -3 -106 33
-25 c18 -13 62 -39 98 -57 93 -46 117 -75 119 -141 0 -40 6 -59 23 -77 l22
-23 -27 -28 c-15 -16 -27 -38 -27 -50 0 -36 -35 -95 -68 -114 -41 -24 -199
-25 -245 -2 -62 33 -74 56 -83 168 l-7 87 79 -3 79 -3 5 -69 c6 -76 19 -93 63
-82 27 6 27 7 27 95 0 103 1 101 -109 156 -127 63 -135 72 -152 159 -8 46 -41
96 -61 96 -4 0 -8 -31 -8 -69 0 -54 4 -74 21 -95 l21 -27 -25 -37 c-21 -31
-26 -54 -32 -136 -8 -115 -17 -139 -63 -168 -30 -18 -48 -21 -145 -19 -94 1
-117 5 -151 24 -56 31 -70 64 -74 177 -4 82 -7 98 -29 127 l-25 32 22 31 c22
30 22 37 16 190 l-7 159 27 7 c28 7 127 0 144 -11 6 -4 10 -64 10 -156 0 -136
2 -154 22 -188 l22 -38 -22 -28 c-19 -23 -22 -41 -22 -109 0 -93 7 -106 60
-106 53 0 60 13 60 106 0 66 -4 86 -20 107 -11 14 -20 32 -20 40 0 7 9 22 20
32 18 16 20 31 20 150 0 73 5 146 11 164 10 29 14 31 59 31 26 0 62 -3 80 -7
l33 -6 -6 -73 c-4 -40 -3 -76 2 -79 19 -11 51 47 51 94 0 59 34 120 80 144 50
26 240 21 287 -7z m-2265 -6 l47 1 -6 -205 c-5 -191 -4 -206 12 -212 12 -5 23
-1 32 12 13 16 14 50 9 196 -4 131 -2 179 7 186 8 7 75 8 187 4 l175 -7 3 -49
c6 -95 5 -96 -104 -96 l-95 0 3 -102 3 -102 60 -11 c37 -6 60 -15 59 -22 -1
-7 -2 -31 -2 -53 l-2 -40 -42 0 c-68 0 -73 -7 -73 -107 l0 -88 85 -5 85 -5 3
-57 2 -58 -159 2 c-120 0 -161 4 -165 14 -3 7 -8 79 -11 161 -7 158 -17 189
-53 167 -31 -20 -39 -52 -41 -176 -1 -68 -5 -126 -9 -129 -12 -11 -95 -16
-119 -8 -19 7 -23 16 -23 52 0 47 -71 249 -89 255 -8 3 -11 -55 -11 -187 0
-104 -3 -191 -7 -193 -5 -2 -38 -2 -75 0 l-68 4 -1 81 c0 45 -4 128 -8 184 -6
84 -11 107 -28 125 -21 23 -21 23 -3 58 17 32 19 51 13 206 -7 199 -14 187
102 176 l69 -7 17 -45 c8 -25 28 -80 43 -122 16 -43 32 -75 37 -72 5 3 9 51 9
107 0 56 3 119 7 140 6 38 7 39 42 33 20 -3 57 -6 83 -6z m1317 -47 c32 -5 33
-7 27 -42 -3 -20 -24 -93 -47 -161 -36 -105 -40 -129 -32 -159 8 -33 7 -39
-22 -71 -21 -23 -41 -64 -59 -120 -14 -47 -26 -90 -26 -96 0 -18 21 -22 101
-19 81 3 89 -1 89 -51 0 -51 -17 -57 -133 -51 -56 4 -135 7 -174 7 -65 0 -73
2 -73 19 0 11 18 79 41 153 37 120 40 136 29 167 -12 32 -11 36 14 57 26 23
40 54 70 151 28 91 27 93 -56 95 -40 1 -80 2 -88 4 -8 1 -21 2 -27 3 -14 1
-19 112 -5 126 7 8 313 -1 371 -12z m-769 -969 c12 -32 12 -34 0 -34 -5 0 -10
7 -10 15 0 8 -7 15 -15 15 -12 0 -15 -15 -15 -75 0 -62 3 -75 16 -75 12 0 14
7 9 30 -5 23 -3 30 9 30 12 0 16 -10 16 -40 0 -39 -1 -40 -35 -40 l-35 0 0 88
c0 87 8 112 37 112 8 0 18 -12 23 -26z m112 -76 c4 -70 2 -105 -6 -110 -7 -5
-12 2 -14 17 -5 36 -32 32 -32 -5 0 -23 -5 -30 -19 -30 -16 0 -17 5 -10 38 5
20 12 72 15 115 6 76 6 77 34 77 l27 0 5 -102z m248 87 c0 -10 -7 -15 -17 -13
-13 2 -18 -4 -18 -22 0 -18 5 -25 18 -24 10 1 17 -5 17 -16 0 -10 -6 -17 -12
-16 -15 1 -18 -5 -18 -40 0 -19 4 -25 15 -20 10 4 15 -1 15 -14 0 -16 -7 -20
-30 -20 l-30 0 0 100 0 100 30 0 c20 0 30 -5 30 -15z m448 -31 c2 -27 -2 -45
-12 -53 -13 -11 -13 -17 0 -46 16 -39 18 -65 5 -65 -4 0 -12 19 -17 42 -12 57
-38 65 -32 9 3 -32 0 -41 -12 -41 -12 0 -15 17 -15 100 l0 101 40 -3 c39 -3
40 -4 43 -44z m92 31 c0 -10 -7 -15 -17 -13 -13 2 -18 -4 -18 -22 0 -18 5 -25
18 -24 10 1 17 -5 17 -17 0 -12 -5 -16 -14 -13 -19 7 -29 -12 -22 -42 5 -17
12 -24 21 -20 10 4 15 -1 15 -14 0 -16 -7 -20 -30 -20 l-30 0 0 100 0 100 30
0 c20 0 30 -5 30 -15z m-716 -53 c6 -29 15 -53 20 -53 10 0 36 76 33 95 -1 5
5 11 13 13 13 3 16 -12 15 -102 0 -82 -3 -105 -14 -105 -10 0 -12 12 -7 54 9
65 -8 84 -23 29 -6 -21 -11 -44 -11 -51 0 -7 -4 -10 -10 -7 -5 3 -10 19 -10
35 0 16 -4 32 -10 35 -6 4 -10 -12 -10 -39 0 -25 -4 -46 -9 -46 -5 0 -11 45
-13 100 -2 84 -1 100 11 98 9 -2 19 -24 25 -56z m306 34 c0 -9 -7 -12 -20 -9
-16 4 -20 0 -20 -19 0 -14 9 -33 20 -43 16 -14 20 -29 18 -59 -3 -38 -5 -41
-32 -41 -22 0 -30 5 -32 23 -4 23 11 31 18 10 5 -14 28 -2 28 15 0 7 -11 25
-25 41 -26 31 -28 38 -19 74 5 16 14 22 35 22 18 0 29 -5 29 -14z m110 4 c0
-5 -7 -7 -16 -3 -14 5 -15 -5 -12 -81 2 -71 0 -86 -12 -86 -12 0 -14 15 -12
86 3 76 2 86 -12 81 -9 -4 -16 -2 -16 3 0 6 18 10 40 10 22 0 40 -4 40 -10z
m95 -75 l0 -80 -30 0 -30 0 -3 69 c-4 87 1 98 35 94 28 -3 28 -3 28 -83z"/>
<path d="M830 3786 c-15 -19 -9 -56 12 -69 34 -22 66 41 36 71 -16 16 -33 15
-48 -2z"/>
<path d="M3982 3788 c-7 -7 -12 -21 -12 -33 0 -46 53 -62 71 -21 21 45 -26 87
-59 54z"/>
<path d="M2076 854 c-3 -9 -6 -34 -6 -56 0 -60 24 -43 28 20 3 50 -9 70 -22
36z"/>
<path d="M2766 854 c-8 -32 10 -57 24 -34 13 19 9 52 -6 57 -7 2 -15 -8 -18
-23z"/>
<path d="M2664 846 c-9 -22 0 -111 11 -111 6 0 11 28 13 63 2 39 -1 62 -8 62
-6 0 -13 -6 -16 -14z"/>
<path d="M4630 1875 c0 -14 5 -25 11 -25 5 0 7 -4 4 -10 -3 -5 -1 -18 5 -27 9
-14 10 -10 6 22 -3 22 -6 46 -6 53 0 6 -4 12 -10 12 -5 0 -10 -11 -10 -25z"/>
</g>
</svg>
